<svg width="24" height="24" viewBox="0 0 24 24" fill="none" xmlns="http://www.w3.org/2000/svg">
<rect y="4" width="24" height="16" rx="3" fill="#F2F2F2"/>
<path d="M12.0031 15.1399C12.6603 15.1399 13.1931 13.734 13.1931 11.9999C13.1931 10.2657 12.6603 8.85986 12.0031 8.85986C11.3459 8.85986 10.8131 10.2657 10.8131 11.9999C10.8131 13.734 11.3459 15.1399 12.0031 15.1399Z" fill="#FF5F00"/>
<path d="M10.8131 12C10.8151 13.1565 11.2381 14.2726 12.0031 15.14C11.3651 15.8641 10.5218 16.3767 9.58527 16.6096C8.64875 16.8425 7.66352 16.7846 6.76073 16.4437C5.85793 16.1027 5.08041 15.4948 4.53166 14.701C3.98291 13.9072 3.68896 12.965 3.68896 12C3.68896 11.035 3.98291 10.0928 4.53166 9.299C5.08041 8.50517 5.85793 7.89731 6.76073 7.55635C7.66352 7.21539 8.64875 7.1575 9.58527 7.39039C10.5218 7.62328 11.3651 8.1359 12.0031 8.86C11.2381 9.72736 10.8151 10.8435 10.8131 12Z" fill="#EB001B"/>
<path d="M20.311 12C20.3101 12.9641 20.0158 13.9051 19.4672 14.6979C18.9187 15.4908 18.1419 16.0979 17.24 16.4387C16.3381 16.7795 15.3539 16.8377 14.4181 16.6058C13.4823 16.3738 12.6393 15.8626 12.001 15.14C12.7673 14.2735 13.1903 13.1567 13.1903 12C13.1903 10.8433 12.7673 9.72648 12.001 8.85998C12.6393 8.13741 13.4823 7.62616 14.4181 7.39419C15.3539 7.16221 16.3381 7.22049 17.24 7.56126C18.1419 7.90204 18.9187 8.50919 19.4672 9.30204C20.0158 10.0949 20.3101 11.0359 20.311 12Z" fill="#F79E1B"/>
</svg>
