<svg width="24" height="24" viewBox="0 0 24 24" fill="none" xmlns="http://www.w3.org/2000/svg">
<rect y="4" width="24" height="16" rx="3" fill="#122A96"/>
<path d="M9.44002 9.10112L7.07896 14.907H5.52411L4.3806 10.3145C4.37137 10.2056 4.33467 10.1009 4.27411 10.0108C4.21354 9.9207 4.13118 9.84825 4.03508 9.80053C3.57905 9.5768 3.09847 9.40989 2.60364 9.30336V9.13483H5.07165C5.23498 9.1368 5.39236 9.19797 5.51585 9.30749C5.63934 9.41702 5.72097 9.56781 5.74623 9.73311L6.35501 13.1037L7.86872 9.15168L9.44002 9.10112ZM15.4702 13.0111C15.4702 11.4858 13.4135 11.4016 13.43 10.7106C13.43 10.5084 13.6274 10.2808 14.047 10.2303C14.5404 10.1791 15.0381 10.2665 15.4866 10.4831L15.7417 9.2528C15.304 9.08879 14.842 9.00328 14.376 9C12.9364 9 11.908 9.78367 11.908 10.9213C11.908 11.7639 12.632 12.219 13.1832 12.497C13.7344 12.7751 13.94 12.9689 13.94 13.2217C13.94 13.6093 13.4875 13.7779 13.068 13.7863C12.5467 13.8004 12.0308 13.6755 11.5707 13.424L11.2828 14.6964C11.8076 14.903 12.3659 15.006 12.9281 14.9997C14.4583 14.9997 15.4537 14.2245 15.462 13.0111H15.4702ZM19.2627 14.907H20.6036L19.4354 9.10112H18.2014C18.0673 9.10098 17.9362 9.14178 17.8248 9.21833C17.7135 9.29488 17.6269 9.40369 17.5762 9.53088L15.3961 14.907H16.9263L17.2225 14.0644H19.0899L19.2627 14.907ZM17.6173 12.851L18.3907 10.6769L18.8514 12.8425L17.6173 12.851ZM11.4967 9.10112L10.2956 14.907H8.86415L10.0652 9.10112H11.4967Z" fill="white"/>
</svg>
