<svg version="1.1" xmlns="http://www.w3.org/2000/svg" width="2830" height="1024" viewBox="0 0 2830 1024">
<path fill="#e52727" d="M2672.361 403.293c0-30.195 24.156-55.561 53.146-55.561 30.195 0 53.146 25.364 53.146 55.561s-22.948 55.561-53.146 55.561c-28.987 1.208-53.146-24.156-53.146-55.561zM2725.506 446.776c22.948 0 39.86-19.325 39.86-42.275s-18.117-42.275-39.86-42.275c-22.948 0-39.86 19.325-39.86 42.275s18.117 42.275 39.86 42.275v0zM2718.259 428.659h-10.87v-49.522h20.533c3.623 0 8.455 0 12.078 2.416s6.039 7.247 6.039 12.078c0 6.039-3.623 10.87-8.455 12.078l8.455 21.74h-12.078l-7.247-19.325h-8.455c0 0 0 20.533 0 20.533v0.003zM2718.259 400.877h6.039c2.416 0 4.831 0 6.039-1.208s2.416-3.623 2.416-6.039c0-1.208-1.208-3.623-2.416-4.831s-4.831-1.208-6.039-1.208h-6.039c1.208 1.208 0 13.286 0 13.286zM1912.629 32.487l-14.494 95.418c-31.403-16.909-54.353-22.948-79.717-22.948-66.431 0-112.33 67.639-112.33 163.058 0 66.431 31.403 106.291 83.34 106.291 21.74 0 45.899-7.247 76.094-22.948l-15.701 100.25c-32.61 9.662-54.353 13.286-78.509 13.286-95.418 0-155.811-72.47-155.811-188.424 0-155.811 82.133-265.725 200.502-265.725 15.701 0 28.987 1.208 39.86 4.831l37.444 9.662c8.455 3.623 10.87 3.623 19.325 7.247l-0.003 0.003zM1616.706 97.71c-2.416-1.208-6.039-1.208-8.455-1.208-28.987 0-45.899 15.701-73.678 57.977l8.455-54.353h-80.925l-54.353 355.105h89.379c32.61-217.411 39.86-254.855 83.34-254.855h6.039c8.455-42.275 18.117-73.678 33.821-102.668 0 0-3.623 0-3.623 0v0.003zM1085.258 450.399c-24.156 8.455-43.483 12.078-64.016 12.078-44.691 0-70.055-27.779-70.055-78.509 0-9.662 1.208-20.533 2.416-32.61l6.039-35.029 3.623-27.779 38.652-242.777h88.172l-10.87 51.938h45.899l-13.286 85.756h-43.483l-24.156 150.98c-1.208 6.039-1.208 10.87-1.208 14.494 0 18.117 9.662 26.571 30.195 26.571 10.87 0 18.117-1.208 24.156-3.623l-12.078 78.512zM733.774 212.456c0 44.691 20.533 76.094 67.639 99.042 35.029 18.117 42.275 22.948 42.275 39.86 0 21.74-15.701 32.61-50.73 32.61-26.571 0-50.73-3.623-79.717-14.494l-12.078 82.133 3.623 1.208 15.701 3.623c6.039 1.208 13.286 2.416 22.948 3.623 20.533 1.208 37.444 3.623 49.522 3.623 93.003 0 136.486-37.444 136.486-118.369 0-48.314-18.117-77.301-62.808-99.042-37.444-18.117-41.068-21.74-41.068-38.652 0-19.325 14.494-28.987 43.483-28.987 18.117 0 41.068 2.416 64.016 6.039l13.286-82.133c-25.364-4.831-51.938-7.247-78.509-7.247-100.25-2.416-134.070 50.73-134.070 117.161zM2621.631 455.231h-84.548l3.623-35.029c-24.156 27.779-49.522 39.86-82.133 39.86-65.224 0-107.499-59.185-107.499-147.356 0-118.369 66.431-218.619 144.941-218.619 35.029 0 60.392 15.701 85.756 48.314l19.325-124.408h88.172l-67.637 437.237zM2489.976 371.89c42.275 0 71.263-49.522 71.263-119.577 0-44.691-16.909-70.055-47.107-70.055-39.86 0-68.847 49.522-68.847 119.577-1.208 45.899 14.494 70.055 44.691 70.055zM1366.684 447.984c-30.195 9.662-60.392 14.494-91.795 14.494-99.042 0-150.98-54.353-150.98-159.434 0-121.993 66.431-211.372 155.811-211.372 73.678 0 119.577 50.73 119.577 129.239 0 25.364-3.623 51.938-10.87 88.172h-177.554c-1.208 6.039-1.208 8.455-1.208 10.87 0 42.275 26.571 62.808 78.509 62.808 31.403 0 60.392-7.247 93.003-22.948-1.208 0-14.494 88.172-14.494 88.172zM1317.162 235.404c1.208-7.247 1.208-13.286 1.208-18.117 0-28.987-15.701-45.899-42.275-45.899-27.779 0-48.314 22.948-56.769 64.016h97.837zM376.253 455.231h-88.172l50.73-335.78-114.746 335.78h-60.392l-7.247-333.365-54.353 333.365h-83.34l71.263-437.24h128.032l3.623 270.557 85.756-270.557h138.902l-70.055 437.24zM605.742 297.004c-9.662-1.208-13.286-1.208-20.533-1.208-50.73 0-76.094 18.117-76.094 54.353 0 21.74 13.286 36.236 32.61 36.236 36.236-1.208 62.808-37.444 64.016-89.379v-0.003zM670.966 455.231h-73.678l1.208-37.444c-22.948 30.195-51.938 42.275-93.003 42.275-48.314 0-80.925-39.86-80.925-96.626 0-86.964 57.977-136.486 155.811-136.486 10.87 0 22.948 1.208 36.236 2.416 2.416-12.078 3.623-16.909 3.623-22.948 0-22.948-15.701-32.61-56.769-32.61-25.364 0-54.353 3.623-73.678 10.87l-13.286 3.623-8.455 2.416 12.078-79.717c44.691-13.286 73.678-19.325 106.291-19.325 76.094 0 117.161 36.236 117.161 103.876 0 18.117-1.208 30.195-7.247 71.263l-18.117 126.824-3.623 22.948-2.416 18.117-1.208 13.286c1.208-2.416 0 7.247 0 7.247l-0.005-0.003zM2066.024 297.004c-8.455-1.208-13.286-1.208-20.533-1.208-50.73 0-76.094 18.117-76.094 54.353 0 21.74 13.286 36.236 32.61 36.236 36.236-1.208 62.808-37.444 64.016-89.379v-0.003zM2130.040 455.231h-73.678l1.208-37.444c-22.948 30.195-51.938 42.275-93.003 42.275-48.314 0-80.925-39.86-80.925-96.626 0-86.964 57.977-136.486 155.811-136.486 9.662 0 22.948 1.208 36.236 2.416 2.416-12.078 3.623-16.909 3.623-22.948 0-22.948-15.701-32.61-56.769-32.61-25.364 0-54.353 3.623-73.678 10.87l-13.286 3.623-8.455 2.416 12.078-79.717c44.691-13.286 73.678-19.325 106.291-19.325 76.094 0 117.161 36.236 117.161 103.876 0 18.117-1.208 30.195-7.247 71.263l-18.117 125.616-2.416 22.948-2.416 18.117-1.208 12.078-1.208 9.662-0.005-0.003zM2378.856 97.71c-2.416-1.208-6.039-1.208-8.455-1.208-28.987 0-45.899 15.701-73.678 57.977l8.455-54.353h-80.925l-54.353 355.105h89.379c32.61-217.411 39.86-254.855 83.34-254.855h6.039c6.039-36.236 18.117-70.055 33.821-102.668l-3.623 0.003z"></path>
<path fill="#f3ae12" d="M2005.632 799.465c0 80.925-25.364 128.032-64.016 128.032-28.987 1.208-45.899-31.403-45.899-78.509 0-56.769 25.364-120.785 66.431-120.785 32.61 0 43.483 35.029 43.483 71.263zM2093.806 800.673c0-89.379-44.691-159.434-126.824-159.434-95.418 0-158.226 84.548-158.226 208.956 0 89.379 37.444 163.058 126.824 163.058 90.587 0 158.226-64.016 158.226-212.58zM1836.535 579.639l-13.286 95.418c-30.195-16.909-50.73-22.948-73.678-22.948-61.6 0-105.083 67.639-105.083 163.058 0 66.431 28.987 106.291 77.301 106.291 20.533 0 43.483-7.247 71.263-22.948l-14.494 100.25c-30.195 9.662-50.73 13.286-73.678 13.286-89.379 0-146.148-72.47-146.148-188.424 0-155.811 77.301-265.725 187.216-265.725 14.494 0 26.571 1.208 37.444 4.831l33.821 9.662c9.662 2.416 12.078 3.623 19.325 7.247v0l-0.003 0.003zM1286.967 643.655c-2.416-1.208-6.039-1.208-8.455-1.208-27.779 0-42.275 15.701-68.847 57.977l8.455-54.353h-74.886l-50.73 355.105h83.34c30.195-217.411 37.444-254.855 77.301-254.855 2.416 0 2.416 0 6.039 1.208 7.247-42.275 18.117-73.678 31.403-102.668l-3.621-1.205zM2371.609 998.759h-78.509l3.623-35.029c-22.948 27.779-47.107 39.86-77.301 39.86-60.392 0-100.25-59.185-100.25-147.356 0-118.369 61.6-218.619 135.278-218.619 32.61 0 56.769 15.701 79.717 49.522l18.117-124.408h82.133l-62.808 436.030zM2248.409 915.419c39.86 0 66.431-49.522 66.431-119.577 0-44.691-15.701-68.847-44.691-68.847-37.444 0-64.016 49.522-64.016 119.577 0 44.691 14.494 68.847 42.275 68.847zM507.908 997.552c-27.779 9.662-56.769 14.494-85.756 14.494-93.003 0-141.317-54.353-141.317-159.434 0-121.993 61.6-211.372 144.941-211.372 68.847 0 112.33 49.522 112.33 129.239 0 25.364-3.623 51.938-10.87 88.172h-164.265c-1.208 6.039-1.208 8.455-1.208 10.87 0 41.068 25.364 61.6 73.678 61.6 30.195 0 56.769-7.247 85.756-22.948l-13.286 89.379h-0.003zM460.802 786.18c0-7.247 1.208-13.286 1.208-18.117 0-28.987-14.494-45.899-39.86-45.899-26.571 0-44.691 22.948-53.146 64.016h91.798zM1495.924 997.552c-27.779 9.662-56.769 14.494-85.756 14.494-93.003 0-141.317-54.353-141.317-159.434 0-121.993 61.6-211.372 144.941-211.372 68.847 0 112.33 49.522 112.33 129.239 0 25.364-3.623 51.938-10.87 88.172h-165.473c-1.208 6.039-1.208 8.455-1.208 10.87 0 41.068 25.364 61.6 73.678 61.6 30.195 0 56.769-7.247 85.756-22.948l-12.078 89.379h-0.003zM1450.025 786.18c1.208-7.247 1.208-13.286 1.208-18.117 0-28.987-14.494-45.899-39.86-45.899-26.571 0-44.691 22.948-53.146 64.016h91.798zM2655.451 997.552c-27.779 9.662-56.769 14.494-85.756 14.494-93.003 0-141.317-54.353-141.317-159.434 0-121.993 61.6-211.372 146.148-211.372 68.847 0 112.33 49.522 112.33 129.239 0 25.364-3.623 51.938-10.87 88.172h-165.473c-1.208 6.039-1.208 8.455-1.208 10.87 0 41.068 25.364 61.6 73.678 61.6 30.195 0 56.769-7.247 85.756-22.948l-13.286 89.379h-0.003zM2608.345 786.18c0-7.247 1.208-13.286 1.208-18.117 0-28.987-14.494-45.899-39.86-45.899-26.571 0-44.691 22.948-53.146 64.016h91.798zM261.508 660.564c-15.701-10.87-38.652-20.533-68.847-20.533-33.821 0-60.392 7.247-60.392 42.275 0 62.808 121.993 39.86 121.993 175.138 0 123.2-80.925 155.811-153.395 155.811-32.61 0-70.055-10.87-97.834-22.948l20.533-90.587c16.909 15.701 49.522 25.364 78.509 25.364 26.571 0 66.431-7.247 66.431-53.146 0-71.263-121.993-44.691-121.993-170.307 0-114.746 71.263-148.564 141.317-148.564 38.652 0 76.094 6.039 96.626 20.533l-22.948 86.964zM750.685 997.552c-16.909 8.455-39.86 13.286-73.678 13.286-72.47 0-117.161-72.47-117.161-160.642 0-115.954 65.224-207.749 160.642-207.749 20.533 0 53.146 8.455 78.509 22.948l-18.117 84.548c-18.117-12.078-36.236-19.325-55.561-19.325-44.691 0-76.094 41.068-76.094 113.538 0 42.275 22.948 76.094 59.185 76.094 21.74 0 37.444-4.831 55.561-15.701l-13.286 93.003zM1062.307 908.172c-4.831 30.195-7.247 61.6-10.87 91.795h-79.717l6.039-56.769h-1.208c-25.364 38.652-50.73 65.224-96.626 65.224-49.522 0-77.301-53.146-77.301-121.993 0-24.156 1.208-37.444 6.039-73.678l22.948-164.265h89.379l-24.156 165.473c-2.416 18.117-6.039 35.029-6.039 54.353 0 20.533 9.662 42.275 33.821 39.86 36.236 0 57.977-44.691 64.016-96.626l25.364-163.058h85.756l-37.444 259.684zM2737.584 995.136h-13.286v-57.977h-19.325v-13.286h51.938v13.286h-19.325v57.977h-0.003zM2826.966 995.136h-13.286v-59.185l-12.078 59.185h-13.286l-12.078-59.185v59.185h-13.286v-71.263h20.533l10.87 56.769h1.208l10.87-56.769h19.325c1.208 0 1.208 71.263 1.208 71.263z"></path>
</svg>
